<svg width="264" height="147" viewBox="0 0 264 147" fill="none" xmlns="http://www.w3.org/2000/svg">
<g clip-path="url(#clip0_14_9)">
<path d="M131.937 94.972C158.163 94.972 179.423 73.7118 179.423 47.486C179.423 21.2602 158.163 0 131.937 0C105.711 0 84.4511 21.2602 84.4511 47.486C84.4511 73.7118 105.711 94.972 131.937 94.972Z" fill="#1984D7"/>
<path d="M131.506 62.3193C114.211 62.3193 110.396 61.4303 109.951 61.3006C108.679 61.0475 107.661 60.156 107.217 58.9485L106.581 57.168C106.454 56.7229 106.516 56.2784 106.772 55.9604C107.025 55.6425 107.472 55.4517 107.916 55.5153C114.847 56.6612 131 56.534 131.192 56.534C131.382 56.534 148.108 56.7254 155.038 55.5159C155.482 55.4511 155.926 55.5802 156.182 55.9604C156.5 56.2784 156.565 56.7871 156.374 57.1673L155.738 58.9485C155.293 60.156 154.275 61.0475 153.003 61.3013C152.618 61.4278 148.738 62.3193 131.506 62.3193ZM107.723 56.8494L108.424 58.5663C108.742 59.393 109.378 59.9023 110.204 60.0912H110.269C110.396 60.156 113.766 61.045 131.445 61.045C149.185 61.045 152.494 60.156 152.682 60.0912C153.571 59.9004 154.272 59.3281 154.525 58.5663L155.161 56.7852C148.101 57.9921 131.824 57.8655 131.124 57.8655C130.552 57.8681 114.782 58.0595 107.722 56.8494H107.723ZM158.34 45.1503C157.895 43.9434 156.815 43.1778 155.606 43.1155C155.67 39.5545 153.506 37.1394 152.935 36.5658C151.663 32.1788 149.756 29.1259 148.675 27.6634C147.975 26.7738 146.959 26.2002 145.813 26.2002L131.633 26.2651L118.088 26.2002C116.943 26.2002 115.927 26.7712 115.226 27.6627C114.145 29.0617 112.238 32.114 110.966 36.501C110.395 37.072 108.232 39.489 108.296 43.0506C107.089 43.1155 106.006 43.8785 105.562 45.0855C105.179 46.0393 105.052 47.1839 105.562 48.3298C106.515 50.6171 112.874 51.4443 115.418 51.6357C115.609 51.6357 115.8 51.6357 116.054 51.5709H147.783C148.036 51.6357 148.228 51.6357 148.483 51.6357C150.963 51.382 157.321 50.6171 158.34 48.3914C158.849 47.2487 158.722 46.1035 158.34 45.1497L158.34 45.1503ZM116.245 28.4258C116.69 27.8548 117.39 27.472 118.088 27.472L131.315 27.5368H131.951L145.814 27.472C146.515 27.472 147.213 27.7899 147.657 28.4258C148.611 29.6976 150.327 32.4319 151.537 36.3096C149.947 36.4367 145.178 36.6924 131.634 36.6924C118.344 36.6924 113.829 36.4386 112.365 36.3096C113.575 32.4319 115.291 29.7618 116.245 28.4258ZM111.794 37.5813C112.938 37.7085 117.072 38.0265 131.506 38.0265H131.76C146.576 38.0265 150.963 37.7085 152.108 37.5813C152.68 38.2172 154.398 40.378 154.269 43.3043C151.917 44.0674 149.055 45.783 147.593 46.6745H116.244C114.781 45.7207 111.984 44.0674 109.568 43.3043C109.44 40.3805 111.157 38.2172 111.793 37.5813H111.794ZM109.631 49.7281C108.167 49.7281 106.96 48.5212 106.96 47.0573C106.96 45.5935 108.167 44.3879 109.631 44.3879C111.093 44.3879 112.301 45.5948 112.301 47.058C112.303 48.5205 111.094 49.7281 109.63 49.7281H109.631ZM114.529 50.6171C113.575 50.6171 112.812 49.8546 112.812 48.9008C112.812 47.947 113.575 47.1845 114.529 47.1845C115.483 47.1845 116.245 47.9476 116.245 48.9014C116.245 49.8553 115.483 50.6171 114.529 50.6171ZM117.708 50.364C117.773 50.1732 117.835 49.9812 117.835 49.7929H146.067C146.067 49.9837 146.132 50.1751 146.194 50.364H117.708ZM146.386 48.2655L146.321 48.5186L117.579 48.5212L117.515 48.2674C117.45 48.1403 117.45 48.0144 117.388 47.9495H146.513C146.434 48.0359 146.389 48.1479 146.386 48.2649L146.386 48.2655ZM149.374 50.6171C148.42 50.6171 147.657 49.8546 147.657 48.9008C147.657 47.947 148.42 47.1845 149.374 47.1845C150.327 47.1845 151.091 47.9476 151.091 48.9014C151.092 49.1271 151.048 49.3508 150.962 49.5596C150.876 49.7683 150.75 49.9579 150.59 50.1175C150.43 50.277 150.241 50.4033 150.032 50.4891C149.823 50.5748 149.599 50.6183 149.374 50.6171ZM154.272 49.7281C152.809 49.7281 151.601 48.5212 151.601 47.0573C151.601 45.5935 152.809 44.3879 154.272 44.3879C155.734 44.3879 156.943 45.5948 156.943 47.058C156.943 48.5212 155.733 49.7281 154.272 49.7281Z" fill="white"/>
<path d="M161.328 39.7452C162.918 39.1093 163.171 38.0283 163.109 37.4547C163.109 36.5009 162.409 35.6119 161.393 35.294L158.405 34.4673C157.896 34.3402 157.324 34.4025 156.88 34.7204C156.435 35.0384 156.179 35.5471 156.179 36.1187V37.4547H156.115L152.299 29.571C149.691 24.5487 146.005 24.4839 145.876 24.4839L131.633 24.5487L118.026 24.4839C117.899 24.4839 114.146 24.5487 111.602 29.571L107.787 37.4554H107.722V36.0564C107.722 35.4854 107.469 35.0384 107.022 34.6581C106.577 34.3402 106.003 34.213 105.497 34.405L102.509 35.2317C101.492 35.5477 100.792 36.4392 100.792 37.4554C100.792 38.0264 100.984 39.1093 102.636 39.7452C104.034 40.3169 105.371 40.446 106.325 40.446H106.389C105.879 41.2707 105.244 42.2245 104.353 43.242C102.955 44.8317 102.255 46.8042 102.255 48.8378V59.3955C102.255 60.2221 102.446 61.05 102.826 61.7482V67.9151C102.826 69.3783 103.971 70.5235 105.434 70.5235L108.423 70.5216C109.886 70.5216 111.031 69.377 111.031 67.9132V65.4345C115.609 65.8173 124.83 66.4532 131.506 66.4532H131.824C138.247 66.4532 147.656 65.8173 152.873 65.4345V67.9132C152.873 69.3764 154.018 70.5216 155.481 70.5216H158.534C159.997 70.5216 161.142 69.377 161.142 67.9132V61.7463C161.525 61.0462 161.714 60.2215 161.714 59.3942L161.711 48.8391C161.711 46.8042 160.947 44.833 159.612 43.2432C158.722 42.2245 158.086 41.2084 157.577 40.3817H157.642C158.531 40.4434 159.865 40.2546 161.328 39.7459L161.328 39.7452ZM103.082 38.5358C102.063 38.1555 102.064 37.6461 102.064 37.4547C102.064 37.0103 102.381 36.6281 102.827 36.5009L105.879 35.6743H106.006C106.133 35.6743 106.197 35.6743 106.259 35.7385C106.386 35.8033 106.45 35.9299 106.45 36.1213V38.4111L107.213 38.6648L107.022 39.1736C106.388 39.1723 104.798 39.2359 103.082 38.5364L103.082 38.5358ZM158.593 44.1316C159.738 45.4682 160.436 47.1845 160.436 48.8365V59.3935C160.436 60.6005 159.927 61.7463 158.974 62.573C157.957 63.3996 156.751 63.9096 155.479 64.0355C151.728 64.3535 139.454 65.2437 131.697 65.2437C124.638 65.2437 113.766 64.4807 108.423 64.0355C107.151 63.909 105.944 63.3996 104.926 62.573C103.972 61.8099 103.463 60.6653 103.463 59.3935V48.8391C103.463 47.1222 104.099 45.4689 105.306 44.1348C106.578 42.6716 107.404 41.3375 107.914 40.2546L108.041 40.0008C108.294 39.4298 108.486 39.047 108.55 38.8562L108.677 38.5383L112.745 30.1446C114.971 25.8205 117.959 25.7582 118.024 25.7582L131.315 25.7557H131.951L145.876 25.6914C146.003 25.6914 148.991 25.818 151.153 30.0778L155.223 38.4715L155.35 38.7895C155.414 38.9802 155.603 39.4254 155.858 39.9341L155.986 40.1872C156.496 41.2707 157.386 42.6697 158.593 44.1322L158.593 44.1316ZM156.876 39.1093L156.686 38.6006L157.449 38.3463L157.451 36.0571C157.451 35.9299 157.516 35.8027 157.641 35.6743C157.769 35.6094 157.896 35.5471 158.024 35.6094L161.013 36.4367C161.457 36.5639 161.775 36.9454 161.775 37.3905C161.775 37.5813 161.775 38.0913 160.757 38.4715C159.103 39.2359 157.514 39.1704 156.878 39.1087L156.876 39.1093Z" fill="white"/>
<path d="M26.1053 127.764C25.557 127.764 25.0257 127.599 24.5002 127.273C23.9746 126.942 23.5462 126.445 23.2035 125.788L13.0698 103.538H12.7613C12.6928 104.264 12.1273 105.755 11.0534 108.011L3.17605 125.856C2.83331 126.49 2.39917 126.97 1.87935 127.29C1.35382 127.604 0.828284 127.764 0.308462 127.764H0V128.107H7.30036V127.764H7.03188C6.52919 127.764 6.15218 127.61 5.90084 127.307C5.65521 126.999 5.52953 126.713 5.52953 126.45C5.52953 126.188 5.58666 125.914 5.7009 125.616L7.47173 121.418H15.4576L17.1313 125.616C17.2455 125.891 17.3026 126.165 17.3026 126.433C17.3026 126.708 17.1827 126.999 16.9428 127.307C16.7029 127.61 16.3316 127.764 15.8346 127.764H15.5261V128.107H26.4138V127.764H26.1053ZM8.05439 119.984L11.5675 111.593L14.8806 119.984H8.05439ZM30.6752 127.764H30.2354V128.107H47.9093L49.4802 121.144H49.1375C48.5891 122.897 47.7551 124.251 46.6297 125.205C45.5044 126.165 44.1106 126.639 42.4483 126.639H37.9813V106.714C37.9813 106.12 38.1926 105.612 38.6268 105.195C39.0609 104.772 39.5693 104.561 40.1634 104.561H40.5747L40.6089 104.218H30.2354V104.561H30.6752C31.2693 104.561 31.772 104.772 32.1947 105.195C32.6174 105.612 32.8402 106.12 32.863 106.714V125.616C32.8402 126.205 32.6174 126.713 32.1947 127.136C31.772 127.553 31.2693 127.764 30.6752 127.764ZM78.3789 127.764C77.8362 127.764 77.2992 127.599 76.7794 127.273C76.2539 126.942 75.8197 126.445 75.4827 125.788L65.349 103.538H65.0406C64.972 104.264 64.4008 105.755 63.3326 108.011L55.4496 125.856C55.1068 126.49 54.6784 126.97 54.1529 127.29C53.6331 127.604 53.1075 127.764 52.582 127.764H52.2792V128.107H59.5796V127.764H59.3054C58.8084 127.764 58.4314 127.61 58.1801 127.307C57.9287 126.999 57.8031 126.713 57.8031 126.45C57.8031 126.188 57.8602 125.914 57.9744 125.616L59.751 121.418H67.7368L69.4048 125.616C69.519 125.891 69.5762 126.165 69.5762 126.433C69.5762 126.708 69.4562 126.999 69.222 127.307C68.9821 127.61 68.6108 127.764 68.1081 127.764H67.8053V128.107H78.6873V127.764H78.3789ZM60.3279 119.984L63.8467 111.593L67.1541 119.984H60.3279ZM82.7831 124.931C82.7831 125.548 82.863 126.073 83.023 126.502C83.6342 127.142 84.5996 127.644 85.9077 128.021C87.2158 128.398 88.6382 128.587 90.1863 128.587C92.9167 128.587 95.1046 127.941 96.7554 126.656C98.4063 125.371 99.2289 123.526 99.2289 121.109C99.2289 118.95 98.2064 117.197 96.1613 115.854L89.6436 111.627C88.5754 110.942 87.8785 110.307 87.5586 109.713C87.3529 109.348 87.2558 108.908 87.2558 108.382C87.2558 107.863 87.4558 107.337 87.8671 106.811C88.6611 105.72 89.9463 105.178 91.7229 105.178C93.1795 105.178 94.3448 105.532 95.2188 106.252C96.0985 106.966 96.5326 107.92 96.5326 109.102H96.8754L97.3209 104.087H95.1674C93.328 103.858 91.78 103.744 90.529 103.744C88.4154 103.744 86.7246 104.287 85.4622 105.383C84.1997 106.474 83.4971 107.92 83.3657 109.713C83.32 109.942 83.2972 110.17 83.2972 110.399C83.2972 112.558 84.3997 114.38 86.6046 115.854L92.5397 119.778C93.5223 120.418 94.2192 120.995 94.6419 121.521C95.0646 122.046 95.2702 122.635 95.2702 123.297C95.2702 124.411 94.8475 125.331 93.9907 126.062C93.1395 126.788 91.9514 127.153 90.4262 127.153C88.4725 127.153 86.9302 126.565 85.8049 125.394C84.6796 124.223 84.114 122.852 84.114 121.281C84.114 121.098 84.1255 120.921 84.1483 120.738H83.8399C83.1372 121.898 82.7831 123.297 82.7831 124.931ZM105.884 127.764H105.444V128.107H115.812L115.783 127.764H115.372C114.778 127.764 114.269 127.553 113.835 127.136C113.401 126.713 113.19 126.205 113.19 125.616V106.68C113.19 106.292 113.287 105.938 113.493 105.618C113.927 104.915 114.549 104.561 115.372 104.561H115.783L115.812 104.218H105.444V104.561H105.884C106.272 104.561 106.626 104.652 106.941 104.835C107.672 105.246 108.043 105.858 108.066 106.68V125.616C108.043 126.205 107.826 126.713 107.403 127.136C106.98 127.553 106.478 127.764 105.884 127.764ZM130.521 128.107V127.764C129.247 127.719 128.088 127.016 127.042 125.651L118.542 114.049L125.197 106.166C126.151 105.075 127.396 104.527 128.916 104.527H129.053V104.218H121.238V104.527H121.581C122.038 104.527 122.352 104.698 122.535 105.041C122.604 105.178 122.638 105.338 122.638 105.515C122.638 105.698 122.547 105.903 122.364 106.132L114.281 116.848C114.281 116.939 116.314 119.744 120.387 125.274C121.821 127.165 124.266 128.107 127.722 128.107H130.521ZM158.403 127.764C157.854 127.764 157.318 127.599 156.798 127.273C156.272 126.942 155.844 126.445 155.501 125.788L145.367 103.538H145.059C144.99 104.264 144.419 105.755 143.351 108.011L135.468 125.856C135.131 126.49 134.697 126.97 134.171 127.29C133.651 127.604 133.126 127.764 132.606 127.764H132.298V128.107H139.598V127.764H139.324C138.827 127.764 138.45 127.61 138.198 127.307C137.947 126.999 137.821 126.713 137.821 126.45C137.821 126.188 137.878 125.914 137.993 125.616L139.769 121.418H147.755L149.429 125.616C149.537 125.891 149.594 126.165 149.594 126.433C149.594 126.708 149.475 126.999 149.24 127.307C149 127.61 148.629 127.764 148.132 127.764H147.824V128.107H158.706V127.764H158.403ZM140.352 119.984L143.865 111.593L147.172 119.984H140.352ZM186.245 127.764C185.696 127.764 185.165 127.599 184.64 127.273C184.12 126.942 183.686 126.445 183.343 125.788L173.209 103.538H172.901C172.832 104.264 172.267 105.755 171.199 108.011L163.315 125.856C162.973 126.49 162.539 126.97 162.019 127.29C161.493 127.604 160.973 127.764 160.448 127.764H160.139V128.107H167.446V127.764H167.171C166.669 127.764 166.292 127.61 166.046 127.307C165.795 126.999 165.669 126.713 165.669 126.45C165.669 126.188 165.726 125.914 165.84 125.616L167.611 121.418H175.597L177.271 125.616C177.385 125.891 177.442 126.165 177.442 126.433C177.442 126.708 177.322 126.999 177.082 127.307C176.842 127.61 176.477 127.764 175.974 127.764H175.666V128.107H186.553V127.764H186.245ZM168.194 119.984L171.707 111.593L175.02 119.984H168.194ZM190.82 127.764H190.375V128.107H208.049L209.62 121.144H209.277C208.734 122.897 207.895 124.251 206.769 125.205C205.644 126.165 204.25 126.639 202.588 126.639H198.121V106.714C198.121 106.12 198.338 105.612 198.766 105.195C199.2 104.772 199.714 104.561 200.303 104.561H200.714L200.748 104.218H190.375V104.561H190.82C191.409 104.561 191.917 104.772 192.334 105.195C192.757 105.612 192.98 106.12 193.002 106.714V125.616C192.98 126.205 192.757 126.713 192.334 127.136C191.917 127.553 191.409 127.764 190.82 127.764ZM215.046 127.764H214.601V128.107H232.275L233.846 121.144H233.509C232.96 122.897 232.126 124.251 230.995 125.205C229.87 126.165 228.476 126.639 226.819 126.639H222.347V117.054H226.922C227.739 117.077 228.413 117.356 228.95 117.905C229.487 118.448 229.75 119.144 229.75 119.984V120.258H230.093V112.375H229.75V112.684C229.75 113.501 229.481 114.192 228.933 114.746C228.385 115.306 227.693 115.597 226.854 115.62H222.347V105.686H228.082C228.762 105.709 229.356 105.869 229.853 106.166C230.904 106.76 231.424 107.76 231.424 109.171V109.542L231.766 109.576V103.607C231.606 103.675 231.161 103.795 230.435 103.967C229.704 104.138 228.785 104.218 227.671 104.218H214.601V104.561H215.046C215.612 104.561 216.172 104.812 216.714 105.315C217.011 105.583 217.183 106.017 217.228 106.612V125.616C217.206 126.205 216.983 126.713 216.566 127.136C216.143 127.553 215.635 127.764 215.046 127.764ZM252.719 127.764H252.274V128.107H263.91V127.764H263.43C262.773 127.764 262.127 127.576 261.505 127.205C260.876 126.827 260.374 126.353 259.985 125.788L253.125 115.174L258.928 106.543C259.34 105.972 259.837 105.498 260.431 105.126C261.019 104.749 261.659 104.561 262.339 104.561H262.819V104.218H254.421V104.561H254.867C255.347 104.561 255.73 104.801 256.027 105.281C256.187 105.503 256.267 105.738 256.267 105.977C256.267 106.217 256.198 106.452 256.061 106.68L251.862 113.232L247.601 106.646C247.487 106.44 247.43 106.217 247.43 105.977C247.43 105.738 247.498 105.492 247.635 105.246C247.927 104.789 248.315 104.561 248.795 104.561H249.235V104.218H237.633V104.561H238.113C238.792 104.561 239.444 104.755 240.055 105.143C240.672 105.526 241.175 106.006 241.557 106.577L247.869 116.334L241.152 125.856C240.169 127.13 239.044 127.764 237.77 127.764H237.296V128.107H245.722V127.764H245.276C244.802 127.764 244.402 127.524 244.082 127.05C243.945 126.822 243.876 126.588 243.876 126.348C243.876 126.113 243.945 125.879 244.082 125.651L249.098 118.248L253.879 125.685C254.016 125.914 254.084 126.142 254.084 126.365C254.084 126.593 254.016 126.833 253.879 127.085C253.582 127.536 253.193 127.764 252.719 127.764Z" fill="#1984D7"/>
<path d="M88.4713 136.878H88.6141V136.764H86.1235V136.878H86.272C86.472 136.878 86.6376 136.947 86.7804 137.09C86.9175 137.227 86.9918 137.398 87.0032 137.598V144.693C87.0032 145.178 86.8718 145.635 86.6148 146.064C86.3577 146.492 86.0435 146.772 85.6722 146.898V147C86.2549 147 86.7462 146.783 87.146 146.344C87.5402 145.904 87.7401 145.367 87.7401 144.727V137.598C87.7458 137.461 87.7801 137.335 87.8429 137.232C87.9857 136.998 88.1971 136.878 88.4713 136.878ZM96.6913 138.015V137.901H94.7377V138.015H94.9091C95.0576 138.015 95.1833 138.061 95.2861 138.152C95.3889 138.243 95.446 138.363 95.4517 138.506V142.328C95.4517 143.025 95.2461 143.573 94.8348 143.979C94.4178 144.378 93.8694 144.578 93.184 144.578C92.4985 144.578 91.9672 144.367 91.5902 143.944C91.2132 143.516 91.0304 142.939 91.0304 142.202V138.506C91.0304 138.369 91.0818 138.255 91.1846 138.158C91.2932 138.061 91.4246 138.015 91.5731 138.015H91.7444V137.901H89.5852V138.015H89.7566C89.9051 138.015 90.0365 138.061 90.1393 138.158C90.2478 138.255 90.2992 138.369 90.2992 138.506V142.339C90.2992 143.127 90.5563 143.75 91.0647 144.201C91.5731 144.658 92.2643 144.887 93.144 144.887C94.0237 144.887 94.7149 144.658 95.2175 144.196C95.7259 143.739 95.9773 143.116 95.9773 142.328V138.495C95.983 138.403 96.0116 138.323 96.0573 138.255C96.1601 138.095 96.32 138.015 96.52 138.015H96.6913ZM105.363 138.015H105.551V137.901H103.403V138.015H103.598C103.763 138.015 103.906 138.072 104.032 138.181C104.152 138.289 104.22 138.426 104.232 138.586V143.305L98.3308 137.741L98.2051 137.729L98.2279 137.912C98.2794 138.278 98.3079 138.689 98.3079 139.152V144.024C98.3079 144.19 98.2451 144.327 98.1251 144.441C98.0052 144.556 97.8566 144.613 97.6796 144.613H97.4911V144.727H99.6389V144.613H99.4447C99.2733 144.613 99.1248 144.556 98.9991 144.441C98.8791 144.327 98.822 144.19 98.822 144.024V139.277L104.734 144.887H104.837L104.814 144.681C104.763 144.287 104.734 143.87 104.734 143.43V138.586C104.74 138.426 104.809 138.289 104.929 138.181C105.048 138.072 105.191 138.015 105.363 138.015ZM114.085 144.613C113.885 144.613 113.697 144.55 113.514 144.43C113.331 144.31 113.189 144.133 113.086 143.899L110.035 136.604H109.933C109.933 136.77 109.79 137.164 109.51 137.775L106.939 143.899C106.825 144.133 106.682 144.31 106.499 144.43C106.317 144.55 106.128 144.613 105.94 144.613H105.837V144.727H108.122V144.613H108.019C107.865 144.613 107.745 144.561 107.665 144.458C107.585 144.356 107.545 144.264 107.545 144.173C107.545 144.087 107.556 144.001 107.59 143.91L108.35 141.962H111.423L112.149 143.899C112.183 143.99 112.195 144.081 112.195 144.167C112.195 144.259 112.155 144.356 112.075 144.458C111.995 144.561 111.875 144.613 111.72 144.613H111.618V144.727H114.177V144.613H114.085ZM108.487 141.619L109.921 137.969L111.286 141.619H108.487ZM117.141 138.232H119.204C119.369 138.232 119.506 138.289 119.615 138.403C119.718 138.518 119.769 138.655 119.769 138.815V138.992H119.895V137.706C119.592 137.832 119.169 137.889 118.621 137.889H114.914C114.777 137.889 114.571 137.878 114.297 137.844C114.017 137.815 113.805 137.769 113.651 137.706V138.992H113.777V138.815C113.777 138.655 113.828 138.518 113.931 138.403C114.034 138.289 114.171 138.232 114.348 138.232H116.405V144.001C116.399 144.167 116.33 144.31 116.199 144.43C116.073 144.55 115.913 144.613 115.736 144.613H115.599V144.727H117.941V144.613H117.816C117.696 144.613 117.581 144.584 117.484 144.533C117.267 144.418 117.153 144.247 117.141 144.013V138.232ZM126.755 137.775V137.969L126.87 137.981V136.547C126.818 136.57 126.664 136.61 126.418 136.667C126.173 136.724 125.864 136.753 125.493 136.753H121.648C121.414 136.753 121.157 136.73 120.877 136.684C120.592 136.638 120.397 136.593 120.283 136.547V137.981L120.397 137.969V137.775C120.397 137.598 120.46 137.438 120.586 137.307C120.712 137.175 120.866 137.101 121.043 137.095H123.208V143.921C123.197 144.11 123.122 144.27 122.985 144.407C122.842 144.544 122.677 144.613 122.477 144.613H122.328V144.727H124.819V144.613H124.676C124.476 144.613 124.31 144.544 124.168 144.407C124.025 144.27 123.951 144.104 123.945 143.91V137.095H126.104C126.281 137.101 126.435 137.17 126.561 137.307C126.692 137.438 126.755 137.598 126.755 137.775ZM132.77 144.613H132.633V144.727H134.958V144.613H134.821C134.644 144.613 134.473 144.538 134.307 144.384C134.216 144.304 134.17 144.179 134.158 144.013V138.609C134.17 138.443 134.238 138.301 134.364 138.186C134.496 138.072 134.644 138.015 134.821 138.015H134.958V137.901H132.633V138.015H132.77C132.953 138.015 133.125 138.089 133.285 138.243C133.382 138.335 133.433 138.466 133.433 138.632V141.191H129.234V138.62C129.24 138.455 129.309 138.312 129.44 138.192C129.566 138.072 129.72 138.015 129.897 138.015H130.028V137.901H127.709V138.015H127.846C128.023 138.015 128.172 138.078 128.303 138.198C128.429 138.318 128.498 138.461 128.509 138.632V144.001C128.498 144.167 128.435 144.31 128.309 144.43C128.183 144.55 128.029 144.613 127.846 144.613H127.709V144.727H130.028V144.613H129.897C129.72 144.613 129.566 144.556 129.44 144.436C129.309 144.321 129.24 144.179 129.234 144.013V141.528H133.433V144.013C133.427 144.179 133.359 144.321 133.227 144.436C133.096 144.556 132.947 144.613 132.77 144.613ZM136.358 144.613H136.198V144.727H140.813L141.442 143.099H141.327C141.196 143.373 141.07 143.596 140.945 143.762C140.819 143.927 140.636 144.07 140.396 144.19C140.162 144.316 139.865 144.373 139.517 144.373H137.734V141.488H139.711C139.779 141.494 139.842 141.505 139.905 141.528C140.065 141.608 140.145 141.751 140.145 141.962V142.111H140.271V140.517H140.145V140.665C140.145 140.803 140.105 140.917 140.025 141.008C139.945 141.1 139.831 141.145 139.677 141.145H137.734V138.255H140.099C140.265 138.255 140.402 138.312 140.505 138.426C140.613 138.54 140.665 138.678 140.665 138.838V139.003L140.791 139.015V137.718C140.722 137.752 140.573 137.786 140.334 137.832C140.099 137.878 139.831 137.901 139.517 137.901H136.198V138.015H136.358C136.535 138.015 136.695 138.072 136.82 138.186C136.952 138.301 137.015 138.443 137.015 138.609V144.013C137.009 144.179 136.94 144.321 136.815 144.436C136.689 144.556 136.535 144.613 136.358 144.613ZM147.148 136.89V136.558C147.034 136.604 146.84 136.65 146.566 136.695C146.286 136.741 146.029 136.764 145.795 136.764H142.464L142.476 136.878H142.613C142.801 136.878 142.967 136.941 143.115 137.067C143.264 137.192 143.338 137.347 143.338 137.529V143.899C143.332 144.093 143.258 144.264 143.115 144.401C142.978 144.544 142.807 144.613 142.613 144.613H142.464V144.727H144.955V144.613H144.806C144.612 144.613 144.441 144.544 144.292 144.401C144.149 144.264 144.081 144.093 144.081 143.899V140.974H146.012C146.166 140.98 146.291 141.037 146.394 141.145C146.497 141.248 146.549 141.38 146.549 141.528V141.699H146.663V139.906H146.549V140.077C146.549 140.226 146.491 140.357 146.389 140.46C146.28 140.568 146.154 140.625 146 140.631H144.081V137.118H146.48C146.64 137.118 146.771 137.175 146.874 137.284C146.983 137.392 147.034 137.524 147.034 137.672V137.844H147.148V136.89ZM150.233 138.255C150.496 138.255 150.73 138.261 150.936 138.266C151.398 138.289 151.77 138.426 152.038 138.678C152.312 138.923 152.449 139.283 152.449 139.746C152.449 140.111 152.358 140.443 152.164 140.745C152.072 140.888 151.907 141.025 151.655 141.157C151.473 141.248 150.936 141.294 150.05 141.294V141.408C150.404 141.408 150.787 141.659 151.198 142.168C151.221 142.196 151.404 142.448 151.741 142.922C152.078 143.396 152.267 143.664 152.312 143.727C152.524 143.984 152.764 144.201 153.021 144.373C153.358 144.607 153.832 144.727 154.432 144.727H154.78V144.613C154.42 144.613 154.095 144.481 153.815 144.213C153.706 144.116 153.575 143.973 153.409 143.79C153.249 143.602 153.032 143.345 152.764 143.008C152.495 142.676 152.364 142.511 152.369 142.511C152.027 142.025 151.735 141.728 151.495 141.619C152.01 141.568 152.432 141.362 152.769 141.008C153.101 140.648 153.266 140.208 153.266 139.677C153.266 139.146 153.061 138.718 152.649 138.392C152.238 138.066 151.673 137.901 150.958 137.901H148.102V138.015H148.262C148.439 138.015 148.588 138.072 148.714 138.186C148.839 138.301 148.902 138.443 148.902 138.609V144.013C148.902 144.179 148.839 144.321 148.714 144.436C148.588 144.556 148.439 144.613 148.262 144.613H148.102V144.727H150.439L150.427 144.613H150.279C150.159 144.613 150.044 144.584 149.947 144.533C149.742 144.413 149.639 144.236 149.627 144.001V138.255H150.233ZM158.619 137.741C157.922 137.741 157.276 137.895 156.694 138.192C156.111 138.489 155.643 138.912 155.3 139.46C154.957 140.009 154.78 140.58 154.78 141.185C154.78 141.785 154.883 142.311 155.083 142.762C155.283 143.207 155.557 143.584 155.9 143.899C156.248 144.207 156.654 144.453 157.128 144.624C157.596 144.801 158.139 144.887 158.75 144.887C159.367 144.887 159.967 144.738 160.549 144.436C161.132 144.139 161.595 143.716 161.943 143.167C162.286 142.625 162.457 142.002 162.457 141.317C162.457 140.625 162.286 140.009 161.943 139.46C161.595 138.912 161.132 138.489 160.549 138.192C159.967 137.895 159.321 137.741 158.619 137.741ZM158.613 144.544C157.768 144.544 157.054 144.241 156.482 143.642C155.911 143.036 155.625 142.265 155.625 141.317C155.625 140.368 155.911 139.592 156.482 138.986C157.054 138.386 157.768 138.083 158.613 138.083C159.464 138.083 160.178 138.386 160.755 138.986C161.332 139.592 161.618 140.368 161.618 141.317C161.618 142.265 161.332 143.036 160.755 143.642C160.178 144.241 159.464 144.544 158.613 144.544ZM171.232 138.015H171.42V137.901H169.272V138.015H169.466C169.632 138.015 169.775 138.072 169.901 138.181C170.021 138.289 170.089 138.426 170.1 138.586V143.305L164.2 137.741L164.074 137.729L164.097 137.912C164.148 138.278 164.177 138.689 164.177 139.152V144.024C164.177 144.19 164.114 144.327 163.994 144.441C163.874 144.556 163.726 144.613 163.554 144.613H163.36V144.727H165.508V144.613H165.314C165.142 144.613 164.994 144.556 164.874 144.441C164.748 144.327 164.691 144.19 164.691 144.024V139.277L170.603 144.887H170.706L170.683 144.681C170.632 144.287 170.603 143.87 170.603 143.43V138.586C170.609 138.426 170.677 138.289 170.797 138.181C170.917 138.072 171.06 138.015 171.232 138.015ZM175.481 138.232H177.544C177.709 138.232 177.846 138.289 177.949 138.403C178.058 138.518 178.109 138.655 178.109 138.815V138.992H178.235V137.706C177.932 137.832 177.509 137.889 176.961 137.889H173.254C173.117 137.889 172.911 137.878 172.637 137.844C172.357 137.815 172.145 137.769 171.991 137.706V138.992H172.117V138.815C172.117 138.655 172.168 138.518 172.271 138.403C172.374 138.289 172.511 138.232 172.682 138.232H174.745V144.001C174.739 144.167 174.67 144.31 174.539 144.43C174.408 144.55 174.253 144.613 174.071 144.613H173.939V144.727H176.281V144.613H176.156C176.036 144.613 175.921 144.584 175.824 144.533C175.607 144.418 175.493 144.247 175.481 144.013V138.232Z" fill="#212121"/>
</g>
<defs>
<clipPath id="clip0_14_9">
<rect width="263.91" height="147" fill="white"/>
</clipPath>
</defs>
</svg>
